# xmcd CD database file
# Copyright (C) 1996 Ti Kan
#
# Track frame offsets:
# 	150
# 	12961
# 	24616
# 	38584
# 	49747
# 	59636
# 	72445
# 	83576
# 	103373
# 	114478
# 	133352
# 	143241
# 	154450
# 	171294
#
# Disc length: 2426 seconds
#
# Revision: 1
# Processed by: cddbd v1.4b41PL1 Copyright (c) Steve Scherf et al.
# Submitted via: DiscPlay 3.4.1
#
DISCID=cc09780e
DTITLE=Jonboy Langford - Misery loves company
DYEAR=1900
DGENRE=
TTITLE0=Cocaine Blues
TTITLE1=Tennessee flat-top box
TTITLE2=Guess things happen that way
TTITLE3=What is truth?
TTITLE4=I got stripes
TTITLE5=Busted
TTITLE6=Big River
TTITLE7=Sunday morning coming down
TTITLE8=There you go
TTITLE9=I still miss someone
TTITLE10=Thing called love
TTITLE11=Give my love to Rose
TTITLE12=Next in line
TTITLE13=Home of the blues
EXTD=
EXTT0=
EXTT1=
EXTT2=
EXTT3=
EXTT4=
EXTT5=
EXTT6=
EXTT7=
EXTT8=
EXTT9=
EXTT10=
EXTT11=
EXTT12=
EXTT13=
PLAYORDER=
